# xmcd
#
# Track frame offsets: 
#        150
#        11002
#        21897
#        32960
#        43892
#        54890
#        65815
#        76692
#        87742
#        97207
#        106490
#        116027
#        125327
#        134690
#        144037
#        153347
#
# Disc length: 2167 seconds
#
# Revision: 0
# Processed by: cddbd v1.5.2PL0 Copyright (c) Steve Scherf et al.
# Submitted via: ExactAudioCopy v0.99pb4
#
DISCID=df087510
DTITLE=Columbia Ballroom Orchestra - Let's Dance Slow-Foxtrot and Quick 
DTITLE=Step Collection
DYEAR=1986
DGENRE=Dance
TTITLE0=Days of Wine and Roses
TTITLE1=Michelle
TTITLE2=Les Feuillies Mortes
TTITLE3=Ti Amo
TTITLE4=Dancing in the Dark
TTITLE5=And I Love You So
TTITLE6=Killing Me Softly with His Song
TTITLE7=Nancy
TTITLE8=New York, New York
TTITLE9=Cabaret
TTITLE10=Top of the World
TTITLE11=Mrs Robinson
TTITLE12=Sing
TTITLE13=Red Roses for a Blue Lady
TTITLE14=Tickled Pink
TTITLE15=Blue on Parade
EXTD=
EXTT0=
EXTT1=
EXTT2=
EXTT3=
EXTT4=
EXTT5=
EXTT6=
EXTT7=
EXTT8=
EXTT9=
EXTT10=
EXTT11=
EXTT12=
EXTT13=
EXTT14=
EXTT15=
PLAYORDER=
